<svg width="1600" height="520" viewBox="0 0 1600 520" fill="none" xmlns="http://www.w3.org/2000/svg" role="img" aria-labelledby="title desc">
  <title id="title">ShopPlus GUI plus Merra banner</title>
  <desc id="desc">A premium Minecraft economy plugin banner for ShopPlus and Merra.</desc>
  <defs>
    <linearGradient id="bg" x1="0" y1="0" x2="1600" y2="520" gradientUnits="userSpaceOnUse">
      <stop offset="0" stop-color="#111827"/>
      <stop offset="0.55" stop-color="#172033"/>
      <stop offset="1" stop-color="#10151f"/>
    </linearGradient>
    <linearGradient id="accent" x1="210" y1="80" x2="1390" y2="420" gradientUnits="userSpaceOnUse">
      <stop offset="0" stop-color="#e23b3b"/>
      <stop offset="0.45" stop-color="#f59e0b"/>
      <stop offset="1" stop-color="#17b26a"/>
    </linearGradient>
    <linearGradient id="coin" x1="0" y1="0" x2="1" y2="1">
      <stop offset="0" stop-color="#ffe08a"/>
      <stop offset="1" stop-color="#f59e0b"/>
    </linearGradient>
    <filter id="shadow" x="-20%" y="-20%" width="140%" height="140%">
      <feDropShadow dx="0" dy="18" stdDeviation="24" flood-color="#000000" flood-opacity="0.35"/>
    </filter>
  </defs>

  <rect width="1600" height="520" rx="42" fill="url(#bg)"/>
  <path d="M54 406C245 284 365 336 516 246C702 135 860 110 1037 161C1217 213 1312 144 1542 83" stroke="url(#accent)" stroke-width="9" stroke-linecap="round" opacity="0.95"/>
  <path d="M54 426C245 304 365 356 516 266C702 155 860 130 1037 181C1217 233 1312 164 1542 103" stroke="#ffffff" stroke-width="2" stroke-linecap="round" opacity="0.16"/>

  <g opacity="0.16">
    <rect x="102" y="84" width="72" height="72" rx="12" fill="#ffffff"/>
    <rect x="122" y="104" width="32" height="32" rx="6" fill="#111827"/>
    <rect x="1330" y="340" width="90" height="90" rx="14" fill="#ffffff"/>
    <rect x="1355" y="365" width="40" height="40" rx="7" fill="#111827"/>
    <rect x="1150" y="86" width="54" height="54" rx="9" fill="#ffffff"/>
  </g>

  <g filter="url(#shadow)">
    <rect x="108" y="138" width="430" height="250" rx="28" fill="#172033" stroke="#2f3b50" stroke-width="2"/>
    <rect x="138" y="170" width="118" height="48" rx="12" fill="#17b26a"/>
    <rect x="276" y="170" width="182" height="18" rx="9" fill="#f8fafc" opacity="0.9"/>
    <rect x="276" y="202" width="112" height="14" rx="7" fill="#94a3b8"/>
    <rect x="138" y="244" width="320" height="20" rx="10" fill="#334155"/>
    <rect x="138" y="286" width="250" height="20" rx="10" fill="#334155"/>
    <rect x="138" y="328" width="160" height="34" rx="12" fill="#e23b3b"/>
    <rect x="320" y="328" width="138" height="34" rx="12" fill="#f59e0b"/>
  </g>

  <g transform="translate(1120 120)" filter="url(#shadow)">
    <circle cx="126" cy="126" r="114" fill="#172033" stroke="#2f3b50" stroke-width="2"/>
    <circle cx="126" cy="126" r="78" fill="url(#coin)"/>
    <path d="M91 162V91H123C140 91 153 95 162 103C172 111 177 123 177 137C177 151 172 162 162 170C153 178 140 182 123 182H91V162ZM118 118V155H123C138 155 146 149 146 137C146 125 138 118 123 118H118Z" fill="#111827"/>
    <path d="M103 79H153" stroke="#111827" stroke-width="14" stroke-linecap="round"/>
    <path d="M103 193H153" stroke="#111827" stroke-width="14" stroke-linecap="round"/>
  </g>

  <text x="605" y="184" fill="#ffffff" font-family="Inter, Segoe UI, Arial, sans-serif" font-size="78" font-weight="800" letter-spacing="0">ShopPlus</text>
  <text x="608" y="242" fill="#f59e0b" font-family="Inter, Segoe UI, Arial, sans-serif" font-size="34" font-weight="700">GUI + Merra</text>
  <text x="608" y="306" fill="#cbd5e1" font-family="Inter, Segoe UI, Arial, sans-serif" font-size="30" font-weight="500">Survival shops, player marketplace, secure trades,</text>
  <text x="608" y="344" fill="#cbd5e1" font-family="Inter, Segoe UI, Arial, sans-serif" font-size="30" font-weight="500">vote rewards, and global currency support.</text>

  <g transform="translate(608 380)">
    <rect width="178" height="46" rx="15" fill="#17b26a"/>
    <text x="24" y="30" fill="#08111f" font-family="Inter, Segoe UI, Arial, sans-serif" font-size="18" font-weight="800">FREE v2.0</text>
    <rect x="198" width="218" height="46" rx="15" fill="#263449" stroke="#41516a"/>
    <text x="222" y="30" fill="#e2e8f0" font-family="Inter, Segoe UI, Arial, sans-serif" font-size="18" font-weight="750">Paper 1.21.1+</text>
  </g>
</svg>
